<?xml version="1.0" encoding="utf-8"?>
<!-- Generator: Adobe Illustrator 21.0.0, SVG Export Plug-In . SVG Version: 6.00 Build 0)  -->
<svg xmlns="http://www.w3.org/2000/svg" xmlns:xlink="http://www.w3.org/1999/xlink" version="1.1" id="Layer_1" x="0px" y="0px" viewBox="0 0 256 256" style="enable-background:new 0 0 256 256;" xml:space="preserve" width="512" height="512">
<style type="text/css">
	.st0{fill:#55ACD5;}
	.st1{fill:#6DCC6D;}
	.st2{fill:#F9D0B4;}
	.st3{fill:#E9E9EA;}
	.st4{fill:#231F20;}
	.st5{fill:#EA4647;}
	.st6{fill:#FFCD29;}
</style>
<g id="Layer_8">
	<path class="st0" d="M106.2,14.8C86.9-2.8,56.9-1.4,39.3,17.9C25.3,33.4,23,56.2,33.8,74.2c0.5,0.8,0.5,1.9,0.1,2.8l-8.1,17.5   c-0.7,1.5,0,3.3,1.4,4c0.8,0.4,1.7,0.4,2.5,0l17.5-8.1c0.9-0.4,2-0.4,2.8,0.2c22.4,13.4,51.5,6.1,64.9-16.3   C126.6,54.7,122.9,29.9,106.2,14.8L106.2,14.8z"/>
	<path class="st1" d="M229.9,230l-15.8-34.1c-0.8-1.7-0.7-3.7,0.2-5.4c26.2-43.6,12.2-100.2-31.4-126.4   c-18.4-11.1-40.1-15.4-61.3-12.1c-1.2,26.1-23.4,46.3-49.5,45c-5.1-0.2-10.1-1.3-14.8-3.1C30.2,137,43.1,194,86.2,221.1   c29.4,18.5,66.6,18.9,96.5,1.1c1.7-1,3.8-1.2,5.5-0.3l34.1,15.8c2.9,1.4,6.4,0.1,7.7-2.8C230.7,233.4,230.7,231.6,229.9,230z"/>
	<path class="st2" d="M78.2,115.4h26.1c1.2,0,2.2,1,2.2,2.2v66c0,1.2-1,2.2-2.2,2.2H78.2c-1.2,0-2.2-1-2.2-2.2v-66   C76,116.4,77,115.4,78.2,115.4z"/>
	<path class="st2" d="M116.5,119.6h-10v60.8h10c1.2,0,2.2-1,2.2-2.2l0,0v-56.5C118.6,120.6,117.7,119.6,116.5,119.6z"/>
	<path class="st2" d="M193.9,145.3c0-3.9-3.1-7-7-7c3.9,0,7-3.1,7-7c0-3.9-3.1-7-7-7H166c3.4-10.1,8.4-18.7,7.1-25.7   c-1.5-8-11.5-10.6-13-3.1c-1.4,7.4-12.6,21.4-12.6,21.4c-3.5,3.5-3.3,7.6-28.9,7.6v51.2h12.9c3.4,0,6.9,0.5,10.2,1.6l5.4,1.7   c3,1,6.1,1.5,9.3,1.5h30.6c3.9,0,7-3.1,7-7c0-3.9-3.1-7-7-7l0,0c3.9,0,7-3.1,7-7s-3.1-7-7-7l0,0   C190.8,152.3,193.9,149.2,193.9,145.3z"/>
	<path class="st0" d="M78.2,115.4h26.1c1.2,0,2.2,1,2.2,2.2v66c0,1.2-1,2.2-2.2,2.2H78.2c-1.2,0-2.2-1-2.2-2.2v-66   C76,116.4,77,115.4,78.2,115.4z"/>
	<path class="st3" d="M116.5,119.6h-10v60.8h10c1.2,0,2.2-1,2.2-2.2l0,0v-56.5C118.6,120.6,117.7,119.6,116.5,119.6z"/>
	<path class="st2" d="M193.9,145.3c0-3.9-3.1-7-7-7c3.9,0,7-3.1,7-7c0-3.9-3.1-7-7-7H166c3.4-10.1,8.4-18.7,7.1-25.7   c-1.5-8-11.5-10.6-13-3.1c-1.4,7.4-12.6,21.4-12.6,21.4c-3.5,3.5-3.3,7.6-28.9,7.6v51.2h12.9c3.4,0,6.9,0.5,10.2,1.6l5.4,1.7   c3,1,6.1,1.5,9.3,1.5h30.6c3.9,0,7-3.1,7-7c0-3.9-3.1-7-7-7l0,0c3.9,0,7-3.1,7-7s-3.1-7-7-7l0,0   C190.8,152.3,193.9,149.2,193.9,145.3z"/>
	<path class="st2" d="M186.9,124.2h-13.7c-3.9,0-7,3.1-7,7c0,3.9,3.1,7,7,7l0,0h13.7c3.9,0,7-3.1,7-7   C193.9,127.4,190.8,124.2,186.9,124.2L186.9,124.2z"/>
	<path class="st2" d="M186.9,138.3h-13.7c-3.9,0-7,3.1-7,7c0,3.9,3.1,7,7,7h13.7c3.9,0,7-3.1,7-7   C193.9,141.4,190.8,138.3,186.9,138.3L186.9,138.3L186.9,138.3z"/>
	<path class="st2" d="M186.9,152.3h-13.7c-3.9,0-7,3.1-7,7s3.1,7,7,7h13.7c3.9,0,7-3.1,7-7S190.8,152.3,186.9,152.3L186.9,152.3   L186.9,152.3z"/>
	<path class="st2" d="M186.9,166.4h-13.7c-3.9,0-7,3.1-7,7c0,3.9,3.1,7,7,7h13.7c3.9,0,7-3.1,7-7   C193.9,169.5,190.8,166.4,186.9,166.4L186.9,166.4L186.9,166.4z"/>
	<path class="st4" d="M104.3,112.9H78.2c-2.6,0-4.7,2.1-4.7,4.7v66c0,2.6,2.1,4.7,4.7,4.7h26.2c2.6,0,4.7-2.1,4.7-4.7v-66   C109,115,106.9,112.9,104.3,112.9z M104,183.2H78.5v-65.3H104L104,183.2z"/>
	<path class="st4" d="M116.5,117.1h-10c-1.4,0-2.5,1.1-2.5,2.5v60.8c0,1.4,1.1,2.5,2.5,2.5h10c2.6,0,4.7-2.1,4.7-4.7v-56.5   C121.1,119.2,119,117.1,116.5,117.1z M116.1,177.9H109v-55.8h7.2V177.9z"/>
	<path class="st4" d="M193.3,138.3c3.9-3.5,4.2-9.6,0.6-13.5c-1.8-2-4.4-3.1-7-3.1h-17.3c0.6-1.6,1.2-3.1,1.8-4.7   c2.8-7.1,5.3-13.3,4.2-19c-1.2-6.2-6.3-9.6-10.5-9.6l0,0c-3.8,0-6.6,2.5-7.4,6.5c-1.1,5.5-9,16.4-12.1,20.2   c-0.5,0.5-0.9,0.9-1.2,1.4c-2.2,2.6-4.6,5.4-25.8,5.4c-1.4,0-2.5,1.1-2.5,2.5v51.2c0,1.4,1.1,2.5,2.5,2.5h12.9   c3.2,0,6.4,0.5,9.4,1.5l5.4,1.7c3.2,1,6.6,1.6,10,1.6h30.6c5.3,0,9.5-4.3,9.5-9.5c0-2.7-1.1-5.2-3.1-7c3.9-3.5,4.2-9.6,0.6-13.4   c-0.2-0.2-0.4-0.4-0.6-0.6c3.9-3.5,4.2-9.6,0.6-13.4C193.7,138.7,193.5,138.5,193.3,138.3L193.3,138.3z M186.9,140.8   c2.5,0,4.5,2,4.5,4.5s-2,4.5-4.5,4.5l0,0c-1.4,0-2.5,1.1-2.5,2.5s1.1,2.5,2.5,2.5c2.5,0,4.5,2,4.5,4.5s-2,4.5-4.5,4.5l0,0   c-1.4,0-2.5,1.1-2.5,2.5s1.1,2.5,2.5,2.5c2.5,0,4.5,2,4.5,4.5s-2,4.5-4.5,4.5l0,0h-30.6c-2.9,0-5.7-0.4-8.5-1.3l-5.4-1.7   c-3.5-1.1-7.2-1.7-10.9-1.7h-10.4V127c19.7-0.2,23.6-3,27.1-7.1c0.4-0.4,0.7-0.8,1.1-1.2c0.1-0.1,0.1-0.1,0.2-0.2   c1.2-1.5,11.6-14.7,13.1-22.5c0.3-1.6,1.1-2.4,2.5-2.4l0,0c2.2,0,4.9,2.1,5.6,5.5c0.8,4.3-1.4,9.8-3.9,16.2c-1,2.6-2.1,5.3-3.1,8.2   c-0.4,1.3,0.3,2.7,1.6,3.2c0.3,0.1,0.5,0.1,0.8,0.1h20.8c2.5,0,4.5,2,4.5,4.5s-2,4.5-4.5,4.5c-1.4,0-2.5,1.1-2.5,2.5   S185.5,140.8,186.9,140.8L186.9,140.8z"/>
	<path class="st4" d="M104.3,112.9H78.2c-2.6,0-4.7,2.1-4.7,4.7v66c0,2.6,2.1,4.7,4.7,4.7h26.2c2.6,0,4.7-2.1,4.7-4.7v-66   C109,115,106.9,112.9,104.3,112.9z M104,183.2H78.5v-65.3H104L104,183.2z"/>
	<path class="st4" d="M116.5,117.1h-10c-1.4,0-2.5,1.1-2.5,2.5v60.8c0,1.4,1.1,2.5,2.5,2.5h10c2.6,0,4.7-2.1,4.7-4.7v-56.5   C121.1,119.2,119,117.1,116.5,117.1z M116.1,177.9H109v-55.8h7.2V177.9z"/>
	<path class="st4" d="M193.3,138.3c3.9-3.5,4.2-9.6,0.6-13.5c-1.8-2-4.4-3.1-7-3.1h-17.3c0.6-1.6,1.2-3.1,1.8-4.7   c2.8-7.1,5.3-13.3,4.2-19c-1.2-6.2-6.3-9.6-10.5-9.6l0,0c-3.8,0-6.6,2.5-7.4,6.5c-1.1,5.5-9,16.4-12.1,20.2   c-0.5,0.5-0.9,0.9-1.2,1.4c-2.2,2.6-4.6,5.4-25.8,5.4c-1.4,0-2.5,1.1-2.5,2.5v51.2c0,1.4,1.1,2.5,2.5,2.5h12.9   c3.2,0,6.4,0.5,9.4,1.5l5.4,1.7c3.2,1,6.6,1.6,10,1.6h30.6c5.3,0,9.5-4.3,9.5-9.5c0-2.7-1.1-5.2-3.1-7c3.9-3.5,4.2-9.6,0.6-13.4   c-0.2-0.2-0.4-0.4-0.6-0.6c3.9-3.5,4.2-9.6,0.6-13.4C193.7,138.7,193.5,138.5,193.3,138.3L193.3,138.3z M186.9,140.8   c2.5,0,4.5,2,4.5,4.5s-2,4.5-4.5,4.5l0,0c-1.4,0-2.5,1.1-2.5,2.5s1.1,2.5,2.5,2.5c2.5,0,4.5,2,4.5,4.5s-2,4.5-4.5,4.5l0,0   c-1.4,0-2.5,1.1-2.5,2.5s1.1,2.5,2.5,2.5c2.5,0,4.5,2,4.5,4.5s-2,4.5-4.5,4.5l0,0h-30.6c-2.9,0-5.7-0.4-8.5-1.3l-5.4-1.7   c-3.5-1.1-7.2-1.7-10.9-1.7h-10.4V127c19.7-0.2,23.6-3,27.1-7.1c0.4-0.4,0.7-0.8,1.1-1.2c0.1-0.1,0.1-0.1,0.2-0.2   c1.2-1.5,11.6-14.7,13.1-22.5c0.3-1.6,1.1-2.4,2.5-2.4l0,0c2.2,0,4.9,2.1,5.6,5.5c0.8,4.3-1.4,9.8-3.9,16.2c-1,2.6-2.1,5.3-3.1,8.2   c-0.4,1.3,0.3,2.7,1.6,3.2c0.3,0.1,0.5,0.1,0.8,0.1h20.8c2.5,0,4.5,2,4.5,4.5s-2,4.5-4.5,4.5c-1.4,0-2.5,1.1-2.5,2.5   S185.5,140.8,186.9,140.8L186.9,140.8z"/>
	<path class="st4" d="M168.5,123.8c-0.2-1.4-1.5-2.3-2.9-2s-2.3,1.5-2,2.9c0.1,0.5,1.9,13.2-13.9,21c-1.2,0.6-1.7,2.1-1.1,3.4   s2.1,1.7,3.4,1.1C171.2,140.6,168.5,124,168.5,123.8z"/>
	<path class="st4" d="M186.9,121.7h-13.7c-5.3,0-9.5,4.3-9.5,9.5c0,5.3,4.3,9.5,9.5,9.5h13.7c5.3,0,9.5-4.3,9.5-9.5   C196.4,126,192.1,121.7,186.9,121.7L186.9,121.7L186.9,121.7z M186.9,135.8h-13.7c-2.5,0-4.5-2-4.5-4.5c0-2.5,2-4.5,4.5-4.5h13.7   c2.5,0,4.5,2,4.5,4.5C191.4,133.8,189.4,135.8,186.9,135.8L186.9,135.8z"/>
	<path class="st4" d="M186.9,135.8h-13.7c-5.3,0-9.5,4.3-9.5,9.5s4.3,9.5,9.5,9.5h13.7c5.3,0,9.5-4.3,9.5-9.5   S192.1,135.8,186.9,135.8L186.9,135.8z M186.9,149.8h-13.7c-2.5,0-4.5-2-4.5-4.5s2-4.5,4.5-4.5h13.7c2.5,0,4.5,2,4.5,4.5   S189.4,149.8,186.9,149.8L186.9,149.8L186.9,149.8z"/>
	<path class="st4" d="M186.9,149.8h-13.7c-5.3,0-9.5,4.3-9.5,9.5c0,5.3,4.3,9.5,9.5,9.5l0,0h13.7c5.3,0,9.5-4.3,9.5-9.5   S192.1,149.8,186.9,149.8L186.9,149.8z M186.9,163.9h-13.7c-2.5,0-4.5-2-4.5-4.5c0-2.5,2-4.5,4.5-4.5h13.7c2.5,0,4.5,2,4.5,4.5   C191.4,161.9,189.4,163.9,186.9,163.9L186.9,163.9L186.9,163.9z"/>
	<path class="st4" d="M186.9,163.9h-13.7c-5.3,0-9.5,4.3-9.5,9.5c0,5.3,4.3,9.5,9.5,9.5l0,0h13.7c5.3,0,9.5-4.3,9.5-9.5   S192.1,163.9,186.9,163.9L186.9,163.9z M186.9,177.9h-13.7c-2.5,0-4.5-2-4.5-4.5c0-2.5,2-4.5,4.5-4.5h13.7c2.5,0,4.5,2,4.5,4.5   C191.4,175.9,189.4,177.9,186.9,177.9L186.9,177.9L186.9,177.9z"/>
	<path class="st4" d="M107.9,12.9C87.5-5.6,56-4.1,37.5,16.2c-14.8,16.3-17.2,40.3-5.9,59.2c0.1,0.1,0.1,0.3,0,0.4l-8.1,17.5   c-1.3,2.8-0.1,6,2.7,7.3c0.7,0.3,1.5,0.5,2.3,0.5c0.8,0,1.6-0.2,2.3-0.5l17.5-8.1c0.2-0.1,0.4,0,0.5,0.1   c23.6,14.1,54.2,6.4,68.4-17.2C129.3,55,125.5,28.9,107.9,12.9L107.9,12.9z M106.1,81.5C91.6,96.1,69,98.8,51.4,88.3   c-1.6-1-3.5-1.1-5.2-0.3l-17.5,8.1c-0.2,0.1-0.5,0-0.7-0.2c-0.1-0.1-0.1-0.3,0-0.4L36.2,78c0.8-1.6,0.7-3.6-0.2-5.1   c-12.7-21.3-5.8-48.8,15.5-61.5c16.9-10.1,38.5-8,53.1,5.3c18.3,16.7,19.7,45,3,63.3C107.1,80.5,106.6,81,106.1,81.5L106.1,81.5z"/>
	<path class="st4" d="M232.2,228.9L232.2,228.9l-15.8-34.1c-0.5-1-0.4-2.1,0.1-3C243.4,147.1,229,89,184.2,62   c-18.9-11.4-41.1-15.8-62.9-12.5c-1.2,0.2-2.1,1.2-2.1,2.4C118,76.6,97,95.7,72.3,94.6c-4.8-0.2-9.6-1.2-14.1-3c-1.1-0.4-2.4,0-3,1   c-27.9,44.2-14.6,102.7,29.6,130.6c30.2,19,68.5,19.5,99.1,1.2c1-0.6,2.2-0.7,3.2-0.2l34.1,15.8c1.1,0.5,2.3,0.8,3.5,0.8   c4.6,0,8.3-3.8,8.3-8.4C233,231.2,232.7,230,232.2,228.9L232.2,228.9z M227,234.8c-1,1-2.5,1.3-3.8,0.7l-34.1-15.8   c-1.1-0.5-2.3-0.8-3.5-0.8c-1.6,0-3.1,0.4-4.4,1.2c-42.5,25.4-97.6,11.5-123-31c-16.9-28.4-16.9-63.8,0.1-92.1   c26.1,8.8,54.3-5.1,63.2-31.2c1.3-3.7,2.1-7.6,2.4-11.6c49.1-6.3,94,28.4,100.3,77.5c2.6,20-1.7,40.3-12.1,57.5   c-1.4,2.4-1.5,5.2-0.4,7.7l15.8,34.1l0,0C228.3,232.3,228,233.8,227,234.8L227,234.8z"/>
	<path class="st4" d="M72.8,29.6H54.4c-1.4,0-2.5,1.1-2.5,2.5c0,1.4,1.1,2.5,2.5,2.5h18.4c1.4,0,2.5-1.1,2.5-2.5   C75.3,30.7,74.2,29.6,72.8,29.6z"/>
	<path class="st4" d="M94.4,41.9h-40c-1.4,0-2.5,1.1-2.5,2.5s1.1,2.5,2.5,2.5h40c1.4,0,2.5-1.1,2.5-2.5S95.8,41.9,94.4,41.9z"/>
	<path class="st4" d="M94.4,54.3h-40c-1.4,0-2.5,1.1-2.5,2.5s1.1,2.5,2.5,2.5h40c1.4,0,2.5-1.1,2.5-2.5S95.8,54.3,94.4,54.3z"/>
	<path class="st4" d="M94.4,66.6h-40c-1.4,0-2.5,1.1-2.5,2.5s1.1,2.5,2.5,2.5h40c1.4,0,2.5-1.1,2.5-2.5S95.8,66.6,94.4,66.6z"/>
	<path class="st5" d="M163.7,15.9h-1.8V14c0-1.4-1.1-2.5-2.5-2.5s-2.5,1.1-2.5,2.5v1.8H155c-1.4,0-2.5,1.1-2.5,2.5s1.1,2.5,2.5,2.5   h1.8v1.8c0,1.4,1.1,2.5,2.5,2.5s2.5-1.1,2.5-2.5v-1.8h1.8c1.4,0,2.5-1.1,2.5-2.5S165.1,15.9,163.7,15.9z"/>
	<path class="st6" d="M188.5,38.4c-0.1-0.3-0.2-0.6-0.4-0.9c-0.1-0.1-0.2-0.3-0.3-0.4c-1-0.9-2.5-0.9-3.5,0   c-0.1,0.1-0.2,0.2-0.3,0.4c-0.1,0.1-0.2,0.3-0.2,0.4c-0.1,0.2-0.1,0.3-0.1,0.5c-0.1,0.3-0.1,0.7,0,1c0,0.2,0.1,0.3,0.1,0.5   c0.1,0.1,0.1,0.3,0.2,0.4c0.1,0.1,0.2,0.3,0.3,0.4c1,1,2.5,1,3.5,0c0,0,0,0,0,0c0.1-0.1,0.2-0.2,0.3-0.4c0.1-0.1,0.2-0.3,0.2-0.4   c0.1-0.1,0.1-0.3,0.1-0.5C188.5,39.1,188.5,38.7,188.5,38.4z"/>
	<path class="st0" d="M56.8,217.3c-0.1-0.3-0.2-0.6-0.4-0.9c-0.1-0.1-0.2-0.3-0.3-0.4c-1-0.9-2.5-0.9-3.5,0   c-0.1,0.1-0.2,0.2-0.3,0.4c-0.1,0.1-0.2,0.3-0.2,0.4c-0.1,0.2-0.1,0.3-0.1,0.5c-0.1,0.3-0.1,0.7,0,1c0,0.2,0.1,0.3,0.1,0.5   c0.1,0.1,0.1,0.3,0.2,0.4c0.1,0.1,0.2,0.3,0.3,0.4c1,1,2.5,1,3.5,0c0,0,0,0,0,0c0.1-0.1,0.2-0.2,0.3-0.4c0.1-0.1,0.2-0.3,0.2-0.4   c0.1-0.1,0.1-0.3,0.1-0.5C56.9,218,56.9,217.6,56.8,217.3z"/>
	<path class="st1" d="M88.2,247.5c-4.1-0.8-7.2-4-8-8c0-0.1-0.1-0.2-0.2-0.2c-0.1,0-0.1,0.1-0.2,0.2c-0.8,4.1-4,7.2-8,8   c-0.1,0-0.2,0.1-0.2,0.2c0,0.1,0.1,0.1,0.2,0.2c4.1,0.8,7.2,4,8,8c0,0.1,0.1,0.2,0.2,0.2c0.1,0,0.1-0.1,0.2-0.2c0.8-4.1,4-7.2,8-8   c0.1,0,0.2-0.1,0.2-0.2C88.3,247.5,88.3,247.5,88.2,247.5z"/>
</g>
</svg>
